<svg width="10" height="19" viewBox="0 0 10 19" fill="none">
	<path
		d="M7.70503 18.1074C7.51291 18.108 7.32309 18.0657 7.14952 17.9833C6.97594 17.901 6.82302 17.7809 6.70199 17.6317L0.297908 9.80971C0.108769 9.57967 0.00537109 9.29113 0.00537109 8.99336C0.00537109 8.69558 0.108769 8.40704 0.297908 8.177L6.72764 0.463447C6.94591 0.200907 7.25957 0.0358058 7.59961 0.00446342C7.93964 -0.026879 8.27821 0.078105 8.54082 0.29632C8.80343 0.514534 8.96858 0.828105 8.99993 1.16805C9.03128 1.50799 8.92627 1.84647 8.70799 2.10901L2.95982 8.99978L8.70806 15.999C8.86531 16.1877 8.9652 16.4175 8.99591 16.6612C9.02662 16.9049 8.98686 17.1523 8.88134 17.3741C8.77582 17.5959 8.60896 17.7828 8.40049 17.9128C8.19203 18.0427 7.95069 18.1103 7.70503 18.1074Z"
		fill="#323232"
	/>
</svg>
